 <svg version="1.0" xmlns="http://www.w3.org/2000/svg" width="700.000000pt" height="541.000000pt" viewBox="0 0 700.000000 541.000000" preserveAspectRatio="xMidYMid meet">
<metadata>
Created by potrace 1.12, written by Peter Selinger 2001-2015
</metadata>
<g transform="translate(0.000000,541.000000) scale(0.100000,-0.100000)" fill="#000000" stroke="none">
<path d="M2574 3723 c-32 -6 -99 -67 -118 -107 -23 -49 -21 -147 4 -196 61
-120 280 -169 280 -62 0 28 -14 35 -85 43 -51 6 -64 12 -87 40 -40 48 -39 116
1 161 l29 33 193 3 c120 2 196 -1 202 -7 7 -7 4 -19 -9 -38 -20 -30 -29 -46
-91 -163 -22 -41 -50 -91 -61 -110 -12 -19 -25 -42 -28 -50 -15 -37 -40 -82
-50 -91 -8 -6 -29 -2 -60 13 -43 19 -67 21 -194 22 -173 0 -251 -20 -365 -92
-69 -44 -205 -167 -205 -185 0 -5 -10 -23 -22 -40 -31 -43 -41 -64 -57 -117
-7 -25 -17 -56 -23 -70 -16 -40 -21 -230 -8 -280 6 -25 14 -56 16 -70 15 -74
75 -180 146 -258 83 -91 219 -177 308 -196 14 -2 43 -9 65 -15 89 -23 299 -9
352 25 12 8 29 14 38 14 18 0 39 11 125 69 140 95 191 134 210 161 24 34 25
40 5 40 -8 0 -15 -7 -15 -15 0 -9 -8 -18 -17 -22 -10 -3 -30 -15 -45 -25 -31
-22 -49 -17 -65 19 -11 23 -10 29 5 46 9 10 30 26 46 34 19 10 25 18 18 25
-13 13 -31 3 -129 -71 -191 -144 -317 -187 -472 -161 -70 12 -100 23 -201 75
-55 29 -163 144 -192 205 -70 145 -74 295 -13 450 53 134 197 255 350 296 100
27 306 8 313 -29 2 -8 -8 -33 -21 -54 -28 -46 -91 -159 -125 -226 -14 -27 -32
-51 -41 -54 -71 -22 -90 -36 -105 -80 -12 -36 -13 -51 -3 -81 14 -42 66 -82
108 -82 81 0 147 105 107 169 -9 15 -9 25 1 43 6 13 27 50 45 83 18 33 53 98
79 145 25 46 50 86 56 88 6 2 28 -9 49 -25 20 -16 48 -36 62 -46 37 -24 231
-162 259 -184 13 -10 34 -25 46 -33 52 -35 169 -118 222 -158 32 -24 106 -78
166 -120 171 -121 188 -132 303 -214 60 -43 114 -81 119 -86 48 -40 200 -142
240 -161 127 -60 174 -71 301 -71 144 0 203 17 373 105 61 32 183 166 220 241
65 132 81 198 81 328 0 209 -86 389 -246 516 -75 60 -111 79 -225 121 -57 21
-80 24 -209 23 -122 -1 -154 -5 -200 -23 -65 -25 -60 -29 -119 90 -37 74 -37
76 -21 106 45 84 43 83 131 83 95 0 119 10 119 48 0 51 -4 52 -290 52 -286 0
-290 -1 -290 -52 0 -40 25 -48 144 -48 96 0 106 -2 106 -18 0 -11 -8 -26 -18
-35 -17 -15 -70 -17 -550 -17 -314 0 -533 4 -537 9 -6 11 91 201 113 219 9 6
28 12 42 12 15 0 36 10 49 24 19 20 21 28 12 45 -12 21 -17 21 -319 20 -169
-1 -317 -4 -328 -6z m1523 -435 c17 -21 83 -147 83 -157 0 -9 -66 -59 -171
-131 -73 -50 -105 -77 -98 -84 6 -7 115 50 124 65 9 14 25 11 25 -6 0 -8 -5
-15 -11 -15 -5 0 -7 -4 -4 -10 3 -5 15 -10 26 -10 22 0 22 -1 10 -32 -5 -13
-27 -33 -50 -43 -22 -11 -41 -26 -41 -32 0 -18 25 -16 40 2 7 8 18 15 25 15
11 0 34 15 135 93 27 20 55 37 62 37 8 0 38 -46 67 -102 66 -128 100 -189 113
-206 7 -8 7 -29 0 -66 -15 -75 5 -120 65 -142 51 -20 83 -13 122 24 39 36 49
94 23 142 -15 26 -31 38 -68 51 -42 15 -53 24 -75 65 -14 27 -40 76 -59 109
-18 33 -46 84 -62 113 -16 30 -27 59 -25 67 7 17 54 26 167 32 157 8 267 -36
385 -152 107 -106 158 -220 158 -355 -1 -149 -42 -252 -150 -367 -71 -77 -151
-125 -243 -148 -180 -44 -302 -14 -492 122 -123 89 -140 101 -178 128 -19 13
-46 33 -60 44 -14 11 -29 21 -34 21 -4 0 -22 12 -40 26 -33 27 -247 183 -378
275 -43 30 -102 71 -130 92 -29 21 -78 55 -108 75 -30 20 -98 69 -150 108 -52
38 -130 94 -172 124 -44 30 -78 61 -77 69 0 9 9 30 20 46 10 17 29 51 41 78
l22 47 577 0 c449 0 579 -3 586 -12z"></path>
<path d="M3060 2300 c0 -5 5 -10 10 -10 6 0 10 5 10 10 0 6 -4 10 -10 10 -5 0
-10 -4 -10 -10z"></path>
</g>
</svg>